<?xml version="1.0" encoding="UTF-8"?>
<svg width="9px" height="17px" viewBox="0 0 9 17" version="1.1" xmlns="http://www.w3.org/2000/svg" xmlns:xlink="http://www.w3.org/1999/xlink">
    <!-- Generator: sketchtool 52.6 (67491) - http://www.bohemiancoding.com/sketch -->
    <title>171AD1E0-FB2D-4F23-99F5-2903EAC3B14F</title>
    <desc>Created with sketchtool.</desc>
    <defs>
        <path d="M1.72915774,3.29235873 C1.72915774,3.72076575 1.72915774,5.63292584 1.72915774,5.63292584 L0,5.63292584 L0,8.49498038 L1.72915774,8.49498038 L1.72915774,17 L5.28121481,17 L5.28121481,8.49521752 L7.66481004,8.49521752 C7.66481004,8.49521752 7.88804416,7.12288427 7.99625352,5.62237278 C7.68601349,5.62237278 5.29464633,5.62237278 5.29464633,5.62237278 C5.29464633,5.62237278 5.29464633,3.95732042 5.29464633,3.66547085 C5.29464633,3.3729889 5.68192824,2.97956114 6.06470641,2.97956114 C6.44676717,2.97956114 7.25313618,2.97956114 8,2.97956114 C8,2.58988822 8,1.24348309 8,0 C7.00295932,0 5.86865416,0 5.36865914,0 C1.64135471,-0.000197622945 1.72915774,2.86470268 1.72915774,3.29235873 Z" id="path-1"></path>
    </defs>
    <g id="NEWSLETTER" stroke="none" stroke-width="1" fill="none" fill-rule="evenodd">
        <g transform="translate(-633.000000, -1610.000000)" id="FOOTER">
            <g transform="translate(0.000000, 1528.000000)">
                <g id="RS" transform="translate(629.000000, 48.000000)">
                    <g id="Group-8" transform="translate(0.000000, 34.000000)">
                        <g id="Icons/Facebook">
                            <g id="Colors/BleuClair" transform="translate(4.636364, 0.000000)">
                                <mask id="mask-2" fill="white">
                                    <use xlink:href="#path-1"></use>
                                </mask>
                                <use id="Mask" fill="#1E3B69" fill-rule="nonzero" xlink:href="#path-1"></use>
                                <g id="Colors/BleuFoncé" mask="url(#mask-2)" fill="#1E3B69">
                                    <g transform="translate(-4.636364, 0.000000)" id="Rectangle-4">
                                        <rect x="0" y="0" width="17" height="17"></rect>
                                    </g>
                                </g>
                            </g>
                        </g>
                    </g>
                </g>
            </g>
        </g>
    </g>
</svg>