<?xml version="1.0" encoding="UTF-8"?>
<svg width="17px" height="17px" viewBox="0 0 17 17" version="1.1" xmlns="http://www.w3.org/2000/svg" xmlns:xlink="http://www.w3.org/1999/xlink">
    <!-- Generator: sketchtool 52.6 (67491) - http://www.bohemiancoding.com/sketch -->
    <title>0BAF1AD3-34FE-4651-A8DF-0851C6300757</title>
    <desc>Created with sketchtool.</desc>
    <defs>
        <path d="M2.12585415,0 C3.29712908,0 4.25005177,0.953076445 4.25,2.12455977 C4.25,3.29650922 3.29712908,4.25 2.12585415,4.25 C0.953647426,4.25 0,3.29656101 0,2.12455977 C0,0.953076445 0.953647426,0 2.12585415,0 Z M11.7131749,5.66666667 C15.123513,5.66666667 15.5833333,8.33885844 15.5833333,10.9528272 L15.5833333,16.736309 C15.5833333,16.8819719 15.4744477,17 15.3400679,17 L12.3177382,17 C12.1833584,17 12.0744727,16.8819719 12.0744727,16.736309 L12.0744727,11.6099452 C12.0744727,10.1746224 11.9766314,9.07671857 10.7454164,9.07671857 C9.61491327,9.07671857 9.17440823,9.76157681 9.17440823,11.5194992 L9.17440823,16.7362563 C9.17440823,16.8819192 9.06552262,16.9999473 8.9311428,16.9999473 L5.9099321,16.9999473 C5.77555227,16.9999473 5.66666667,16.8819192 5.66666667,16.7362563 L5.66666667,6.19241377 C5.66666667,6.0468036 5.77555227,5.92872277 5.9099321,5.92872277 L8.80960739,5.92872277 C8.94398721,5.92872277 9.05287282,6.0468036 9.05287282,6.19241377 L9.05287282,6.87721927 C9.59812796,6.23333861 10.497091,5.66666667 11.7131749,5.66666667 Z M3.95581313,5.66666667 C4.11832196,5.66666667 4.25,5.78754303 4.25,5.93660049 L4.25,16.7300662 C4.25,16.8791776 4.11832196,17 3.95581313,17 L0.294186867,17 C0.131678042,17 0,16.8791776 0,16.7300662 L0,5.93660049 C0,5.78754303 0.131678042,5.66666667 0.294186867,5.66666667 L3.95581313,5.66666667 Z" id="path-1"></path>
    </defs>
    <g id="NEWSLETTER" stroke="none" stroke-width="1" fill="none" fill-rule="evenodd">
        <g transform="translate(-741.000000, -1610.000000)" id="FOOTER">
            <g transform="translate(0.000000, 1528.000000)">
                <g id="RS" transform="translate(629.000000, 48.000000)">
                    <g id="Group-8" transform="translate(0.000000, 34.000000)">
                        <g id="Icons/Linkedin" transform="translate(112.000000, 0.000000)">
                            <g id="Colors/BleuClair" transform="translate(0.772727, 0.000000)">
                                <mask id="mask-2" fill="white">
                                    <use xlink:href="#path-1"></use>
                                </mask>
                                <use id="Mask" fill="#6795BD" fill-rule="nonzero" xlink:href="#path-1"></use>
                                <g id="Colors/BleuFoncé" mask="url(#mask-2)" fill="#1E3B69">
                                    <g transform="translate(-0.772727, 0.000000)" id="Rectangle-4">
                                        <rect x="0" y="0" width="17" height="17"></rect>
                                    </g>
                                </g>
                            </g>
                        </g>
                    </g>
                </g>
            </g>
        </g>
    </g>
</svg>