<?xml version="1.0" encoding="UTF-8"?>
<svg width="147px" height="35px" viewBox="0 0 147 35" version="1.1" xmlns="http://www.w3.org/2000/svg" xmlns:xlink="http://www.w3.org/1999/xlink">
    <!-- Generator: sketchtool 52.6 (67491) - http://www.bohemiancoding.com/sketch -->
    <title>EB2B6A9B-104A-48F4-9753-4F007D9ACB5D</title>
    <desc>Created with sketchtool.</desc>
    <g id="NEWSLETTER" stroke="none" stroke-width="1" fill="none" fill-rule="evenodd">
        <g transform="translate(-31.000000, -1578.000000)" fill="#FFFFFF" fill-rule="nonzero" id="FOOTER">
            <g transform="translate(0.000000, 1528.000000)">
                <g id="Logo/Blanc" transform="translate(31.000000, 50.000000)">
                    <path d="M51.2890511,11.8787879 L51.2890511,11.6666667 C50.4306569,11.5606061 49.7868613,10.5 49.1430657,9.65151515 C49.5722628,9.43939394 50.1087591,9.12121212 50.1087591,8.37878788 C50.1087591,7.31818182 49.250365,6.89393939 47.8554745,7 L47.2116788,7 L46.4605839,7 L46.4605839,7.21212121 C46.889781,7.21212121 46.9970803,7.31818182 46.9970803,7.84848485 L46.9970803,11.1363636 C46.9970803,11.6666667 46.9970803,11.6666667 46.4605839,11.6666667 L46.4605839,11.8787879 L47.1043796,11.8787879 L47.6408759,11.8787879 L48.4992701,11.8787879 L48.4992701,11.6666667 C47.8554745,11.6666667 47.7481752,11.5606061 47.7481752,11.030303 L47.7481752,9.86363636 C47.9627737,9.86363636 48.2846715,9.86363636 48.4992701,9.86363636 C48.9284672,10.2878788 49.7868613,11.9848485 51.0744526,11.9848485 L51.2890511,11.8787879 Z M47.6408759,9.43939394 L47.6408759,7.21212121 C48.7138686,7 49.3576642,7.53030303 49.3576642,8.37878788 C49.4649635,9.01515152 48.9284672,9.54545455 47.6408759,9.43939394 Z" id="Shape"></path>
                    <path d="M57.5124088,11.9848485 C59.0145985,11.9848485 60.0875912,10.8181818 60.0875912,9.43939394 C60.0875912,7.95454545 58.9072993,6.89393939 57.5124088,6.89393939 C56.1175182,6.89393939 54.9372263,8.06060606 54.9372263,9.43939394 C54.829927,10.8181818 56.010219,11.9848485 57.5124088,11.9848485 Z M57.1905109,7.10606061 C58.1562044,7 59.1218978,7.84848485 59.2291971,9.12121212 C59.4437956,10.3939394 58.8,11.4545455 57.8343066,11.6666667 C56.8686131,11.7727273 55.9029197,10.8181818 55.7956204,9.54545455 C55.5810219,8.37878788 56.2248175,7.21212121 57.1905109,7.10606061 Z" id="Shape"></path>
                    <path d="M68.5642336,7.84848485 C68.5642336,7.21212121 68.6715328,7.21212121 69.1007299,7.21212121 L69.1007299,6.89393939 L68.6715328,6.89393939 L68.1350365,6.89393939 L67.4912409,6.89393939 L67.4912409,7.10606061 C68.0277372,7.10606061 68.1350365,7.10606061 68.1350365,7.74242424 L68.1350365,10.1818182 C68.1350365,10.9242424 67.5985401,11.5606061 66.740146,11.5606061 C65.8817518,11.5606061 65.4525547,11.1363636 65.4525547,10.1818182 L65.4525547,7.63636364 C65.4525547,7.21212121 65.559854,7.10606061 65.9890511,7.10606061 L65.9890511,6.89393939 L65.4525547,6.89393939 L64.9160584,6.89393939 L64.1649635,6.89393939 L64.1649635,7.10606061 C64.7014599,7.10606061 64.7014599,7.31818182 64.7014599,7.74242424 L64.7014599,10.1818182 C64.7014599,11.5606061 65.559854,11.9848485 66.6328467,12.0909091 C67.7058394,12.0909091 68.6715328,11.4545455 68.6715328,10.0757576 L68.6715328,7.84848485 L68.5642336,7.84848485 Z" id="Shape"></path>
                    <path d="M74.3583942,13.3636364 L75.1094891,13.3636364 L75.1094891,13.1515152 C74.4656934,13.1515152 74.4656934,12.9393939 74.4656934,12.4090909 L74.4656934,7.10606061 C75.4313869,7 76.0751825,7.74242424 76.0751825,8.48484848 C76.0751825,9.33333333 75.6459854,9.86363636 74.7875912,9.86363636 L74.7875912,10.0757576 C75.1094891,10.0757576 75.2167883,10.0757576 75.4313869,10.0757576 C76.289781,9.96969697 77.0408759,9.12121212 76.9335766,8.37878788 C76.8262774,7.42424242 76.1824818,6.78787879 74.5729927,6.78787879 L73.8218978,6.78787879 L73.1781022,6.78787879 L73.1781022,7 C73.7145985,7 73.8218978,7.10606061 73.8218978,7.63636364 L73.8218978,12.3030303 C73.8218978,12.9393939 73.8218978,13.0454545 73.1781022,13.0454545 L73.1781022,13.2575758 L73.9291971,13.2575758 L74.3583942,13.2575758 L74.3583942,13.3636364 Z" id="Shape"></path>
                    <path d="M81.6547445,9.33333333 C82.5131387,9.33333333 83.9080292,9.33333333 84.7664234,9.33333333 C84.9810219,9.33333333 84.9810219,9.33333333 85.0883212,9.01515152 C85.0883212,7.84848485 84.3372263,6.89393939 83.049635,6.89393939 C81.8693431,6.89393939 80.9036496,7.95454545 80.9036496,9.54545455 C80.9036496,10.9242424 82.0839416,12.8333333 85.1956204,11.4545455 L85.0883212,11.2424242 C82.1912409,12.3030303 81.6547445,10.2878788 81.6547445,9.33333333 Z M82.9423358,7.21212121 C83.6934307,7.21212121 84.229927,7.95454545 84.229927,8.59090909 C84.229927,8.90909091 84.0153285,9.01515152 83.2642336,9.01515152 L81.6547445,9.01515152 C81.6547445,7.95454545 82.2985401,7.21212121 82.9423358,7.21212121 Z" id="Shape"></path>
                    <path d="M42.919708,24.5 C40.7737226,23.3333333 39.0569343,22.1666667 39.9153285,20.1515152 C40.3445255,19.1969697 41.6321168,18.6666667 42.8124088,18.7727273 C44.3145985,18.9848485 45.0656934,19.3030303 45.3875912,21 L46.2459854,21 L46.0313869,18.2424242 C39.8080292,16.969697 37.5547445,19.5151515 37.6620438,22.1666667 C37.7693431,24.2878788 39.2715328,25.5606061 41.5248175,26.7272727 C43.3489051,27.5757576 44.1,28.3181818 44.5291971,29.5909091 C44.9583942,31.0757576 43.6708029,33.3030303 41.4175182,33.3030303 C39.4861314,33.1969697 38.4131387,32.4545455 38.1985401,30.1212121 L37.340146,30.1212121 L37.4474453,33.3030303 C42.7051095,35.6363636 46.7824818,32.4545455 46.889781,29.8030303 C47.1043796,28 46.5678832,26.5151515 42.919708,24.5 Z" id="Shape"></path>
                    <path d="M57.9416058,17.8181818 C53.4350365,17.8181818 49.7868613,21.4242424 49.7868613,25.8787879 C49.7868613,30.3333333 53.4350365,33.9393939 57.9416058,33.9393939 C62.5554745,33.9393939 66.0963504,30.3333333 66.0963504,25.8787879 C66.0963504,21.4242424 62.4481752,17.8181818 57.9416058,17.8181818 Z M58.9072993,32.9848485 C55.7956204,33.4090909 53.0058394,30.5454545 52.4693431,26.6212121 C51.9328467,22.6969697 53.9715328,19.3030303 56.9759124,18.8787879 C60.0875912,18.4545455 62.8773723,21.3181818 63.4138686,25.2424242 C63.950365,29.0606061 61.9116788,32.5606061 58.9072993,32.9848485 Z" id="Shape"></path>
                    <path d="M81.0109489,18.2424242 L78.9722628,18.2424242 L78.9722628,18.9848485 C80.6890511,18.9848485 80.7963504,19.0909091 80.7963504,21 L80.7963504,28.530303 C80.7963504,30.6515152 79.1868613,32.7727273 76.5043796,32.7727273 C73.8218978,32.7727273 72.319708,31.2878788 72.319708,28.530303 L72.319708,20.469697 C72.319708,19.1969697 72.5343066,18.8787879 73.9291971,18.8787879 L73.9291971,18.1363636 L72.319708,18.1363636 L70.710219,18.1363636 L68.4569343,18.1363636 L68.4569343,18.8787879 C70.1737226,18.8787879 69.9591241,19.4090909 69.9591241,20.6818182 L69.9591241,28.1060606 C69.9591241,32.3484848 72.6416058,33.9393939 76.1824818,33.9393939 C79.6160584,33.9393939 82.4058394,32.1363636 82.4058394,27.5757576 L82.4058394,20.8939394 C82.4058394,18.9848485 82.7277372,18.7727273 83.9080292,18.7727273 L83.9080292,18.030303 L82.620438,18.030303 L81.0109489,18.030303 L81.0109489,18.2424242 Z" id="Shape"></path>
                    <path d="M91.8481752,14.3181818 C91.8481752,6.25757576 97.5350365,7.31818182 99.0372263,8.37878788 C100.110219,9.12121212 100.754015,9.65151515 101.39781,8.90909091 C102.041606,8.16666667 101.827007,7.21212121 99.8956204,6.36363636 C97.2131387,5.3030303 89.5948905,6.04545455 89.5948905,17.1818182 C89.2729927,18.2424242 87.4489051,18.6666667 86.8051095,18.6666667 L86.8051095,19.5151515 L89.5948905,19.5151515 L89.5948905,30.8636364 C89.5948905,32.8787879 88.5218978,33.0909091 86.3759124,33.0909091 L86.3759124,33.8333333 L89.5948905,33.7272727 L92.2773723,33.7272727 L95.7109489,33.8333333 L95.7109489,32.8787879 C92.8138686,32.8787879 91.9554745,32.7727273 91.9554745,30.2272727 L91.9554745,19.4090909 L96.8912409,19.4090909 L96.8912409,18.2424242 L91.8481752,18.2424242 L91.8481752,14.3181818 Z" id="Shape"></path>
                    <path d="M103.651095,14.3181818 C103.651095,6.25757576 109.337956,7.31818182 110.840146,8.37878788 C111.913139,9.12121212 112.556934,9.65151515 113.20073,8.90909091 C113.844526,8.16666667 113.629927,7.21212121 111.69854,6.36363636 C109.016058,5.3030303 101.39781,6.04545455 101.39781,17.1818182 C101.075912,18.2424242 99.2518248,18.6666667 98.6080292,18.6666667 L98.6080292,19.5151515 L101.39781,19.5151515 L101.39781,30.8636364 C101.39781,32.8787879 100.324818,33.0909091 98.1788321,33.0909091 L98.1788321,33.8333333 L101.39781,33.7272727 L104.080292,33.7272727 L107.513869,33.8333333 L107.513869,32.8787879 C104.616788,32.8787879 103.758394,32.7727273 103.758394,30.2272727 L103.758394,19.4090909 L108.694161,19.4090909 L108.694161,18.2424242 L103.651095,18.2424242 L103.651095,14.3181818 Z" id="Shape"></path>
                    <path d="M123.286861,25.7727273 C126.076642,25.7727273 130.368613,25.6666667 133.051095,25.7727273 C133.587591,25.7727273 133.909489,25.9848485 133.909489,24.8181818 C134.016788,21.3181818 131.656204,18.030303 127.578832,18.1363636 C123.930657,18.1363636 120.711679,21.3181818 120.711679,26.4090909 C120.711679,30.7575758 124.467153,36.8030303 134.016788,32.2424242 L133.694891,31.5 C125.00365,35 123.286861,28.9545455 123.286861,25.7727273 Z M127.364234,19.0909091 C129.832117,18.9848485 131.441606,21.4242424 131.441606,23.3333333 C131.441606,24.3939394 130.79781,24.6060606 128.329927,24.6060606 L123.286861,24.6060606 C123.286861,21.530303 125.110949,19.1969697 127.364234,19.0909091 Z" id="Shape"></path>
                    <path d="M145.819708,31.6060606 C140.454745,33.9393939 140.454745,31.8181818 140.454745,29.2727273 L140.454745,19.4090909 L145.712409,19.4090909 L145.712409,18.2424242 L140.454745,18.2424242 L140.454745,15.0606061 L139.489051,15.0606061 C138.845255,17.1818182 137.664964,18.5606061 135.948175,18.5606061 L135.948175,19.4090909 L138.20146,19.4090909 L138.20146,30.2272727 C138.20146,31.8181818 138.845255,36.3787879 146.141606,32.3484848 L145.819708,31.6060606 Z" id="Shape"></path>
                    <path d="M115.775912,30.2272727 L115.775912,15.8030303 C115.775912,14.1060606 116.205109,13.7878788 117.6,13.7878788 L117.6,13.0454545 L115.346715,13.0454545 L113.844526,13.0454545 L111.805839,13.0454545 L111.805839,13.7878788 C113.20073,13.7878788 113.415328,14.2121212 113.415328,15.5909091 L113.415328,30.6515152 C113.415328,32.6666667 112.342336,32.8787879 110.19635,32.8787879 L110.19635,33.6212121 L113.415328,33.5151515 L115.990511,33.5151515 L119.424088,33.6212121 L119.424088,32.8787879 C116.634307,32.8787879 115.775912,32.7727273 115.775912,30.2272727 Z" id="Shape"></path>
                    <path d="M39.2715328,11.7727273 C39.5934307,11.8787879 40.129927,12.0909091 40.7737226,11.9848485 C41.4175182,11.9848485 41.9540146,11.7727273 42.4905109,11.3484848 L42.4905109,9.54545455 L40.9883212,9.54545455 L40.9883212,9.75757576 C41.5248175,9.75757576 41.6321168,9.86363636 41.7394161,10.1818182 L41.7394161,11.3484848 C41.0956204,11.6666667 40.7737226,11.6666667 40.4518248,11.6666667 C39.3788321,11.5606061 38.6277372,10.6060606 38.520438,9.33333333 C38.4131387,7.95454545 39.3788321,7.10606061 40.4518248,7.10606061 C41.0956204,7.10606061 41.7394161,7.21212121 41.9540146,8.06060606 L42.1686131,8.06060606 L42.1686131,7.10606061 C41.7394161,6.89393939 40.7737226,6.68181818 39.8080292,6.78787879 C38.8423358,7 37.6620438,7.84848485 37.6620438,9.22727273 C37.6620438,10.5 38.1985401,11.4545455 39.2715328,11.7727273 Z" id="Shape"></path>
                    <path d="M16.5240876,8.37878788 C16.8459854,11.1363636 16.9532847,13.8939394 16.9532847,16.7575758 L17.2751825,16.7575758 C17.3824818,15.4848485 17.2751825,14.2121212 17.3824818,13.0454545 L17.7043796,8.37878788 C17.3824818,8.27272727 16.9532847,8.27272727 16.5240876,8.37878788 Z" id="Shape"></path>
                    <path d="M18.0262774,16.6515152 L18.3481752,16.6515152 C18.3481752,13.7878788 18.7773723,11.1363636 19.4211679,8.48484848 C19.0992701,8.48484848 18.7773723,8.37878788 18.5627737,8.37878788 C18.2408759,11.1363636 18.1335766,13.8939394 18.0262774,16.6515152 Z" id="Shape"></path>
                    <path d="M16.2021898,16.6515152 C16.2021898,13.7878788 16.0948905,11.2424242 15.7729927,8.48484848 C15.4510949,8.48484848 15.1291971,8.59090909 14.9145985,8.6969697 C15.5583942,11.3484848 15.880292,14 15.880292,16.7575758 L16.2021898,16.7575758 L16.2021898,16.6515152 Z" id="Shape"></path>
                    <path d="M19.0992701,16.6515152 L19.4211679,16.6515152 C19.6357664,14 20.3868613,11.5606061 21.459854,9.22727273 C21.0306569,9.01515152 20.6014599,8.8030303 20.1722628,8.6969697 C19.5284672,11.2424242 19.2065693,13.8939394 19.0992701,16.6515152 Z" id="Shape"></path>
                    <path d="M12.8759124,9.33333333 C13.9489051,11.6666667 14.7,14 14.9145985,16.6515152 L15.2364964,16.6515152 C15.2364964,14 14.9145985,11.3484848 14.2708029,8.8030303 C13.7343066,9.01515152 13.3051095,9.12121212 12.8759124,9.33333333 Z" id="Shape"></path>
                    <path d="M22.1036496,9.65151515 C21.0306569,11.7727273 20.3868613,14.2121212 20.1722628,16.6515152 L20.3868613,16.6515152 C20.6014599,14.3181818 21.7817518,12.3030303 23.0693431,10.5 C22.8547445,10.1818182 22.4255474,9.86363636 22.1036496,9.65151515 Z" id="Shape"></path>
                    <path d="M14.1635036,16.6515152 C13.9489051,14.1060606 13.3051095,11.7727273 12.2321168,9.65151515 C11.910219,9.86363636 11.4810219,10.0757576 11.1591241,10.3939394 C12.5540146,12.3030303 13.6270073,14.3181818 13.8416058,16.6515152 L14.1635036,16.6515152 Z" id="Shape"></path>
                    <path d="M0.32189781,0.742424242 L0.32189781,34.0454545 L14.7,34.0454545 C14.4854015,33.9393939 14.2708029,33.9393939 14.1635036,33.8333333 C15.0218978,31.9242424 15.4510949,29.6969697 15.6656934,27.6818182 C15.2364964,27.6818182 14.9145985,27.5757576 14.5927007,27.5757576 C13.9489051,29.6969697 12.9832117,31.8181818 11.3737226,33.5151515 C11.1591241,33.4090909 10.9445255,33.3030303 10.8372263,33.0909091 C12.3394161,31.5 13.3051095,29.5909091 13.9489051,27.5757576 L12.7686131,27.3636364 C11.6956204,29.2727273 10.3007299,31.1818182 8.69124088,32.5606061 L8.15474453,32.1363636 C9.65693431,30.7575758 10.9445255,29.0606061 11.910219,27.2575758 C11.1591241,27.0454545 10.5153285,26.8333333 9.87153285,26.6212121 C8.47664234,28 6.97445255,29.1666667 5.25766423,30.1212121 C5.15036496,29.9090909 5.04306569,29.6969697 4.93576642,29.4848485 C6.33065693,28.530303 7.83284672,27.469697 9.12043796,26.3030303 C6.54525547,25.2424242 3.97007299,23.1212121 3.54087591,20.2575758 L7.83284672,20.2575758 L7.83284672,20.1515152 C8.58394161,21.530303 9.65693431,23.0151515 10.9445255,24.0757576 C12.3394161,22.2727273 13.3051095,20.2575758 13.1978102,17.9242424 L7.18905109,17.8181818 C6.54525547,17.8181818 5.90145985,17.7121212 5.3649635,17.3939394 C4.39927007,17.0757576 3.54087591,16.1212121 3.54087591,14.9545455 C3.43357664,11.8787879 6.22335766,9.65151515 8.58394161,8.6969697 C7.29635036,7.53030303 6.00875912,6.46969697 4.72116788,5.51515152 C4.93576642,5.3030303 5.04306569,5.09090909 5.25766423,4.98484848 C5.57956204,5.3030303 6.11605839,5.62121212 6.4379562,5.83333333 C7.51094891,6.57575758 8.47664234,7.53030303 9.44233577,8.37878788 C9.97883212,8.06060606 10.6226277,7.95454545 11.1591241,7.74242424 C10.1934307,6.15151515 8.90583942,4.66666667 7.51094891,3.18181818 C7.61824818,2.96969697 7.83284672,2.86363636 7.94014599,2.65151515 C9.3350365,4.13636364 10.729927,5.83333333 11.8029197,7.53030303 C12.4467153,7.53030303 12.9832117,7.21212121 13.519708,7.21212121 L13.6270073,7.10606061 C12.9832117,5.1969697 12.1248175,3.39393939 10.6226277,1.8030303 C10.8372263,1.6969697 10.9445255,1.48484848 11.1591241,1.37878788 C12.7686131,2.96969697 13.6270073,5.09090909 14.3781022,7.10606061 L15.4510949,7 C15.2364964,4.98484848 15.0218978,2.96969697 14.1635036,1.06060606 C14.3781022,0.954545455 14.5927007,0.848484848 14.8072993,0.742424242 C15.6656934,2.65151515 15.9875912,4.77272727 16.3094891,6.89393939 L17.9189781,6.89393939 C18.2408759,4.77272727 18.5627737,2.65151515 19.4211679,0.742424242 C19.6357664,0.848484848 19.9576642,0.848484848 20.0649635,1.06060606 C19.2065693,2.86363636 18.9919708,4.87878788 18.5627737,6.89393939 C18.8846715,7 19.3138686,7 19.7430657,7 C20.3868613,4.98484848 21.3525547,2.96969697 22.9620438,1.37878788 L23.6058394,1.90909091 C22.2109489,3.39393939 21.3525547,5.3030303 20.7087591,7.10606061 L22.5328467,7.42424242 C23.6058394,5.83333333 24.8934307,4.13636364 26.2883212,2.75757576 C26.5029197,2.65151515 26.7175182,3.07575758 26.9321168,3.18181818 C25.6445255,4.56060606 24.3569343,5.93939394 23.3912409,7.53030303 L23.3912409,7.63636364 C24.0350365,7.74242424 24.5715328,8.06060606 25.2153285,8.16666667 C26.5029197,7 27.6832117,5.93939394 29.0781022,4.98484848 C29.4,4.66666667 29.5072993,5.3030303 29.7218978,5.40909091 C28.4343066,6.36363636 27.0394161,7.31818182 25.9664234,8.48484848 C28.3270073,9.54545455 30.4729927,11.6666667 30.9021898,14.2121212 L26.5029197,14.2121212 C25.8591241,13.0454545 24.8934307,11.7727273 23.9277372,10.8181818 C22.640146,12.5151515 21.7817518,14.4242424 21.459854,16.5454545 L26.9321168,16.6515152 C27.5759124,16.6515152 28.219708,16.7575758 28.7562044,16.969697 C29.7218978,17.3939394 30.7948905,18.2424242 30.7948905,19.4090909 C30.9021898,22.5909091 27.8978102,24.8181818 25.429927,25.7727273 C26.7175182,27.0454545 28.1124088,28.1060606 29.7218978,29.0606061 C30.2583942,29.2727273 29.5072993,29.5909091 29.5072993,29.8030303 C27.7905109,28.7424242 26.1810219,27.5757576 24.6788321,25.9848485 C24.0350365,26.3030303 23.2839416,26.4090909 22.640146,26.6212121 C23.6058394,28.530303 25.0007299,30.2272727 26.5029197,31.7121212 L25.9664234,32.1363636 C24.3569343,30.6515152 22.8547445,28.7424242 21.8890511,26.7272727 L20.7087591,26.9393939 C21.3525547,29.0606061 22.3182482,31.0757576 23.820438,32.6666667 C23.6058394,32.7727273 23.4985401,32.9848485 23.2839416,33.0909091 C21.6744526,31.3939394 20.7087591,29.1666667 20.0649635,27.0454545 L18.9919708,27.1515152 C19.3138686,29.2727273 19.6357664,31.5 20.4941606,33.4090909 C20.279562,33.5151515 20.0649635,33.6212121 19.9576642,33.6212121 L34.0138686,33.6212121 L34.0138686,0.424242424 L0.32189781,0.742424242 Z" id="Shape"></path>
                    <path d="M9.12043796,12.3030303 C8.2620438,13.1515152 8.15474453,14.530303 8.36934307,15.5909091 C8.47664234,16.1212121 8.90583942,16.5454545 9.44233577,16.6515152 L13.0905109,16.6515152 C12.8759124,14.530303 11.910219,12.5151515 10.5153285,10.8181818 C10.0861314,11.3484848 9.54963504,11.7727273 9.12043796,12.3030303 Z" id="Shape"></path>
                    <path d="M12.6613139,25.2424242 C13.6270073,23.0151515 14.1635036,20.469697 14.1635036,17.8181818 L13.9489051,17.8181818 C13.8416058,20.3636364 12.9832117,22.5909091 11.4810219,24.5 C11.8029197,24.8181818 12.2321168,25.030303 12.6613139,25.2424242 Z" id="Shape"></path>
                    <path d="M15.2364964,17.8181818 L15.0218978,17.8181818 C15.0218978,20.5757576 14.4854015,23.1212121 13.4124088,25.5606061 L14.2708029,25.8787879 C14.8072993,23.3333333 15.1291971,20.5757576 15.2364964,17.8181818 Z" id="Shape"></path>
                    <path d="M16.2021898,17.8181818 C16.0948905,17.8181818 15.9875912,17.8181818 15.880292,17.8181818 C15.7729927,20.5757576 15.5583942,23.4393939 14.8072993,25.9848485 C15.1291971,25.9848485 15.3437956,26.0909091 15.6656934,26.0909091 C16.0948905,23.4393939 16.2021898,20.6818182 16.2021898,17.8181818 Z" id="Shape"></path>
                    <path d="M16.5240876,26.1969697 C16.8459854,26.0909091 17.2751825,26.1969697 17.7043796,26.0909091 C17.489781,23.4393939 17.3824818,20.5757576 17.2751825,17.8181818 L16.9532847,17.8181818 L16.9532847,17.9242424 L16.7386861,23.0151515 C16.7386861,24.1818182 16.5240876,25.2424242 16.5240876,26.1969697 Z" id="Shape"></path>
                    <path d="M18.0262774,17.8181818 C18.0262774,20.6818182 18.1335766,23.3333333 18.4554745,25.9848485 C18.7773723,25.8787879 18.9919708,25.8787879 19.3138686,25.7727273 C18.670073,23.2272727 18.4554745,20.5757576 18.3481752,17.8181818 L18.0262774,17.8181818 Z" id="Shape"></path>
                    <path d="M20.8160584,25.2424242 C19.9576642,23.0151515 19.3138686,20.5757576 19.4211679,17.8181818 L19.2065693,17.8181818 C19.3138686,20.3636364 19.5284672,23.1212121 20.0649635,25.5606061 C20.279562,25.5606061 20.6014599,25.4545455 20.8160584,25.2424242 Z" id="Shape"></path>
                    <path d="M22.640146,24.2878788 C21.3525547,22.3787879 20.3868613,20.3636364 20.3868613,17.9242424 L20.0649635,17.9242424 C20.0649635,20.469697 20.4941606,22.8030303 21.459854,25.030303 C21.8890511,24.7121212 22.2109489,24.6060606 22.640146,24.2878788 Z" id="Shape"></path>
                    <path d="M24.0350365,23.1212121 C25.1080292,22.0606061 26.2883212,20.6818182 25.6445255,18.8787879 C25.429927,18.3484848 25.0007299,17.9242424 24.4642336,17.8181818 L21.0306569,17.8181818 C21.0306569,20.1515152 21.8890511,22.0606061 23.1766423,23.8636364 L24.0350365,23.1212121 Z" id="Shape"></path>
                    <path d="M16.4167883,27.5757576 C16.0948905,29.8030303 15.7729927,32.030303 14.8072993,34.0454545 L19.6357664,34.0454545 C18.7773723,32.030303 18.2408759,29.8030303 18.0262774,27.5757576 C17.3824818,27.5757576 16.8459854,27.5757576 16.4167883,27.5757576 Z" id="Shape"></path>
                </g>
            </g>
        </g>
    </g>
</svg>