<?xml version="1.0" encoding="UTF-8"?>
<svg width="18px" height="16px" viewBox="0 0 18 16" version="1.1" xmlns="http://www.w3.org/2000/svg" xmlns:xlink="http://www.w3.org/1999/xlink">
    <!-- Generator: sketchtool 52.6 (67491) - http://www.bohemiancoding.com/sketch -->
    <title>FA17D708-6BCF-4E8E-8852-7B45592BF2FF</title>
    <desc>Created with sketchtool.</desc>
    <defs>
        <path d="M18,1.80295498 C17.3376575,2.10874903 16.6260261,2.31545468 15.8790276,2.40839352 C16.6414245,1.93253494 17.2269859,1.17903116 17.502751,0.281122612 C16.7891156,0.721804269 15.998875,1.04176426 15.1576579,1.21417149 C14.4840655,0.466890484 13.5242666,0 12.4620928,0 C10.4226476,0 8.76921725,1.72147335 8.76921725,3.84490079 C8.76921725,4.14626569 8.80187734,4.43972402 8.86484206,4.72117608 C5.79570743,4.56077513 3.07458384,3.03004786 1.2532124,0.703721643 C0.935330204,1.27160396 0.753186029,1.93209568 0.753186029,2.63676904 C0.753186029,3.97078369 1.40512226,5.14769179 2.39603438,5.83721088 C1.7906801,5.81722482 1.22125543,5.64426853 0.723408743,5.35626427 C0.723057182,5.37229704 0.723057182,5.38840303 0.723057182,5.40461882 C0.723057182,7.26756859 1.99602735,8.82157632 3.68535218,9.17488302 C3.37552075,9.26269723 3.04923623,9.30984384 2.71244001,9.30984384 C2.47446782,9.30984384 2.24314015,9.28568486 2.01761325,9.24073453 C2.48758108,10.7682406 3.85135967,11.8800659 5.4673487,11.9109967 C4.20348398,12.9423653 2.61115506,13.5569916 0.880943592,13.5569916 C0.58285433,13.5569916 0.288913498,13.5388357 0,13.5031463 C1.63427025,14.5942169 3.5754188,15.2307692 5.66088347,15.2307692 C12.4534444,15.2307692 16.1679411,9.37177866 16.1679411,4.29070708 C16.1679411,4.12401015 16.1642848,3.95819174 16.1572184,3.79325183 C16.8788342,3.25117569 17.5049307,2.57399231 18,1.80295498 Z" id="path-1"></path>
    </defs>
    <g id="NEWSLETTER" stroke="none" stroke-width="1" fill="none" fill-rule="evenodd">
        <g transform="translate(-684.000000, -1611.000000)" id="FOOTER">
            <g transform="translate(0.000000, 1528.000000)">
                <g id="RS" transform="translate(629.000000, 48.000000)">
                    <g id="Group-8" transform="translate(0.000000, 34.000000)">
                        <g id="Icons/Twitter" transform="translate(55.000000, 0.000000)">
                            <g id="Colors/BleuClair" transform="translate(0.000000, 1.227273)">
                                <mask id="mask-2" fill="white">
                                    <use xlink:href="#path-1"></use>
                                </mask>
                                <use id="Mask" fill="#6795BD" fill-rule="nonzero" xlink:href="#path-1"></use>
                                <g id="Colors/BleuFoncé" mask="url(#mask-2)" fill="#1E3B69">
                                    <g transform="translate(0.000000, -1.227273)" id="Rectangle-4">
                                        <rect x="0" y="0" width="18" height="18"></rect>
                                    </g>
                                </g>
                            </g>
                        </g>
                    </g>
                </g>
            </g>
        </g>
    </g>
</svg>