<?xml version="1.0" encoding="UTF-8"?>
<svg width="25px" height="16px" viewBox="0 0 25 16" version="1.1" xmlns="http://www.w3.org/2000/svg" xmlns:xlink="http://www.w3.org/1999/xlink">
    <!-- Generator: sketchtool 52.6 (67491) - http://www.bohemiancoding.com/sketch -->
    <title>140C87A8-E18E-4813-AF0F-2DA697E95B6A</title>
    <desc>Created with sketchtool.</desc>
    <defs>
        <path d="M20.0186169,0.00011039599 L19.8551195,0.00011039599 L19.8551195,0.165704382 L19.8551195,0.69632271 L19.8551195,0.861916695 L20.0186169,0.861916695 L20.353405,0.861916695 C20.7428012,0.861916695 21.093939,1.06432774 21.2928063,1.40340903 C21.4916191,1.74249031 21.49914,2.15161785 21.312862,2.49793008 L15.9555985,12.4574147 L13.5157274,6.56629831 L15.8139008,2.29496705 C16.2895146,1.41102635 17.2023749,0.861916695 18.1962753,0.861916695 L18.3048376,0.861916695 L18.4683349,0.861916695 L18.4683349,0.69632271 L18.4683349,0.165704382 L18.4683349,0.00011039599 L18.3048376,0.00011039599 L13.4868973,0.00011039599 L13.3234,0.00011039599 L13.3234,0.165704382 L13.3234,0.69632271 L13.3234,0.861916695 L13.4868973,0.861916695 L13.8216854,0.861916695 C14.2110816,0.861916695 14.5622195,1.06432774 14.7610868,1.40340903 C14.9598995,1.74249031 14.9674204,2.15161785 14.7811424,2.49793008 L13.1141778,5.59691112 L11.6285863,2.0099246 C11.5208961,1.74994204 11.5475461,1.46611395 11.7016696,1.23135688 C11.8557931,0.996599803 12.1038731,0.861916695 12.3822547,0.861916695 L12.7630945,0.861916695 L12.9265919,0.861916695 L12.9265919,0.69632271 L12.9265919,0.165704382 L12.9265919,0.00011039599 L12.7630945,0.00011039599 L7.000957,0.00011039599 L6.83745964,0.00011039599 L6.83745964,0.165704382 L6.83745964,0.69632271 L6.83745964,0.861916695 L7.000957,0.861916695 L7.08019873,0.861916695 C8.21688688,0.861916695 9.23542094,1.54791738 9.67517434,2.60954042 L11.8702354,7.90954153 L9.4239334,12.4574147 L5.09692124,2.0099246 C4.98923097,1.74994204 5.01588104,1.46611395 5.17000456,1.23135688 C5.32412807,0.996599803 5.57220806,0.861916695 5.85058957,0.861916695 L6.43574663,0.861916695 L6.59924399,0.861916695 L6.59924399,0.69632271 L6.59924399,0.165704382 L6.59924399,0.00011039599 L6.43574663,0.00011039599 L0.163497361,0.00011039599 L0,0 L0,0.165704382 L0,0.69632271 L0,0.861916695 L0.163497361,0.861916695 L0.548479148,0.861916695 C1.6851673,0.861916695 2.70375586,1.54791738 3.14345476,2.60954042 L8.13154126,14.6532462 C8.21879435,14.8638817 8.42109508,15 8.64699394,15 C8.85430859,15 9.03737114,14.8897144 9.13672303,14.7050219 L9.78738803,13.4956338 L12.2715669,8.87854233 L14.6632063,14.653191 C14.7504594,14.8638265 14.9527602,14.9999448 15.178659,14.9999448 C15.3859737,14.9999448 15.5690362,14.8896592 15.6683881,14.7049667 L16.3190531,13.4955786 L22.3455658,2.29485665 C22.8211797,1.41091596 23.7340399,0.861806299 24.7279404,0.861806299 L24.8365026,0.861806299 L25,0.861806299 L25,0.696212314 L25,0.165593986 L25,0 L24.8365571,0 L20.0186169,0.00011039599 Z" id="path-1"></path>
    </defs>
    <g id="NEWSLETTER" stroke="none" stroke-width="1" fill="none" fill-rule="evenodd">
        <g transform="translate(-629.000000, -1655.000000)" id="FOOTER">
            <g transform="translate(0.000000, 1528.000000)">
                <g id="RS" transform="translate(629.000000, 48.000000)">
                    <g id="Group-8" transform="translate(0.000000, 34.000000)">
                        <g id="Icons/Wordpress" transform="translate(0.000000, 40.000000)">
                            <g id="Colors/??" transform="translate(0.000000, 5.113636)">
                                <mask id="mask-2" fill="white">
                                    <use xlink:href="#path-1"></use>
                                </mask>
                                <use id="Mask" fill="#1E3B69" fill-rule="nonzero" xlink:href="#path-1"></use>
                                <g id="Colors/BleuFoncé" mask="url(#mask-2)" fill="#1E3B69">
                                    <g transform="translate(0.000000, -5.113636)" id="Rectangle-4">
                                        <rect x="0" y="0" width="25" height="25"></rect>
                                    </g>
                                </g>
                            </g>
                        </g>
                    </g>
                </g>
            </g>
        </g>
    </g>
</svg>